M48
; DRILL file {KiCad (5.1.10)-1} date 09/13/21 11:27:53
; FORMAT={-:-/ absolute / inch / decimal}
; #@! TF.CreationDate,2021-09-13T11:27:53+02:00
; #@! TF.GenerationSoftware,Kicad,Pcbnew,(5.1.10)-1
; #@! TF.FileFunction,Plated,1,2,PTH
FMAT,2
INCH
T1C0.0157
T2C0.0315
T3C0.0354
T4C0.0394
T5C0.0433
T6C0.0472
T7C0.0512
T8C0.0551
T9C0.0591
T10C0.0598
T11C0.0709
%
G90
G05
T1
X7.4025Y-4.3675
X8.88Y-3.65
X8.92Y-3.45
T2
X3.26Y-4.83
X3.26Y-4.93
X3.26Y-5.03
X3.56Y-4.83
X3.56Y-4.93
X3.56Y-5.03
X3.77Y-3.925
X3.77Y-4.225
X3.915Y-3.925
X3.915Y-4.225
X3.96Y-2.75
X3.96Y-3.0453
X4.06Y-3.925
X4.06Y-4.225
X4.205Y-3.9247
X4.205Y-4.22
X5.68Y-3.5276
X5.68Y-3.7244
X5.68Y-4.1176
X5.68Y-4.3144
X5.68Y-4.6976
X5.68Y-4.8944
X5.82Y-3.5344
X5.82Y-3.6344
X5.82Y-3.7344
X5.82Y-4.1244
X5.82Y-4.2244
X5.82Y-4.3244
X5.82Y-4.7044
X5.82Y-4.8044
X5.82Y-4.9044
X6.01Y-3.89
X6.025Y-4.01
X6.025Y-4.31
X6.03Y-3.25
X6.03Y-3.55
X6.08Y-4.43
X6.16Y-4.56
X6.16Y-4.86
X6.31Y-3.89
X6.38Y-4.43
X6.3831Y-4.07
X6.4Y-3.79
X6.58Y-4.07
X6.69Y-4.07
X6.7Y-3.79
X6.99Y-4.07
X7.3Y-4.56
X7.6Y-4.56
X7.7Y-4.95
X7.7Y-5.07
X7.7Y-5.19
X7.72Y-3.77
X7.895Y-2.145
X8.0Y-4.95
X8.0Y-5.07
X8.0Y-5.19
X8.02Y-3.77
X8.1398Y-5.0295
X8.1398Y-5.2264
X8.1417Y-4.8819
X8.18Y-4.06
X8.195Y-2.145
X8.23Y-3.51
X8.2331Y-3.92
X8.2677Y-2.8543
X8.2913Y-2.9921
X8.2913Y-3.126
X8.4269Y-3.51
X8.43Y-3.92
X8.4417Y-4.8819
X8.48Y-4.06
X8.4882Y-2.9921
X8.4882Y-3.126
X8.56Y-2.125
X8.56Y-2.425
X8.5677Y-2.8543
X8.6138Y-4.4297
X8.6138Y-4.5597
X8.6138Y-4.6897
X8.6138Y-4.8197
X8.6138Y-4.9497
X8.6138Y-5.0797
X8.615Y-5.2
X8.62Y-2.57
X8.68Y-2.125
X8.68Y-2.425
X8.8Y-2.125
X8.8Y-2.425
X8.82Y-2.755
X8.82Y-2.9519
X8.845Y-3.07
X8.845Y-3.2669
X8.85Y-4.15
X8.85Y-4.27
X8.8525Y-4.02
X8.8544Y-3.89
X8.9138Y-4.4297
X8.9138Y-4.5597
X8.9138Y-4.6897
X8.9138Y-4.8197
X8.9138Y-4.9497
X8.9138Y-5.0797
X8.915Y-5.2
X8.92Y-2.57
X8.97Y-3.06
X8.97Y-3.36
X9.025Y-2.57
X9.035Y-2.125
X9.035Y-2.425
X9.09Y-3.06
X9.09Y-3.36
X9.124Y-4.439
X9.124Y-4.539
X9.124Y-4.639
X9.124Y-4.739
X9.124Y-4.839
X9.124Y-4.939
X9.124Y-5.039
X9.124Y-5.139
X9.15Y-4.15
X9.15Y-4.27
X9.1525Y-4.02
X9.1544Y-3.89
X9.21Y-3.06
X9.21Y-3.36
X9.2219Y-2.57
X9.33Y-3.06
X9.33Y-3.36
X9.34Y-2.56
X9.424Y-4.439
X9.424Y-4.539
X9.424Y-4.639
X9.424Y-4.739
X9.424Y-4.839
X9.424Y-4.939
X9.424Y-5.039
X9.424Y-5.139
X9.5369Y-2.56
T3
X6.4Y-3.93
X6.7Y-3.93
X7.5Y-3.77
X7.6Y-3.77
T4
X3.0487Y-4.0013
X3.0487Y-4.5131
X3.4424Y-4.0013
X3.4424Y-4.5131
X6.4025Y-4.2225
X6.4025Y-4.8225
X6.5025Y-4.2225
X6.5025Y-4.8225
X6.6025Y-4.2225
X6.6025Y-4.8225
X6.7025Y-4.2225
X6.7025Y-4.8225
X6.8025Y-4.2225
X6.8025Y-4.8225
X6.9025Y-4.2225
X6.9025Y-4.8225
X7.0025Y-4.2225
X7.0025Y-4.8225
X7.1025Y-4.2225
X7.1025Y-4.8225
X7.2025Y-4.2225
X7.2025Y-4.8225
X7.3025Y-4.2225
X7.3025Y-4.8225
X7.4025Y-4.2225
X7.4025Y-4.8225
X7.5025Y-4.2225
X7.5025Y-4.8225
X7.51Y-2.22
X7.51Y-2.42
X7.6025Y-4.2225
X7.6025Y-4.8225
X7.7025Y-4.2225
X7.7025Y-4.8225
X7.71Y-2.22
X7.71Y-2.42
X7.8025Y-4.2225
X7.8025Y-4.8225
X7.875Y-2.3
X7.975Y-2.3
X8.075Y-2.3
X8.175Y-2.3
X8.9598Y-2.8023
X9.0598Y-2.8023
X9.1598Y-2.8023
X9.175Y-2.3
X9.2598Y-2.8023
X9.275Y-2.3
X9.375Y-2.3
X9.475Y-2.3
X9.51Y-2.015
T5
X2.905Y-4.675
X2.905Y-5.2656
X2.91Y-3.23
X2.91Y-3.8206
X5.55Y-3.3244
X5.55Y-3.7244
X5.55Y-3.9144
X5.55Y-4.3144
X5.55Y-4.4944
X5.55Y-4.8944
X6.99Y-3.85
X7.1Y-3.99
X7.2378Y-3.4843
X7.39Y-3.85
X7.5Y-3.99
X7.52Y-2.935
X7.52Y-3.335
X7.6378Y-3.4843
X8.2283Y-3.7717
X8.2953Y-3.374
X8.3283Y-3.7717
X8.3953Y-3.374
X8.4283Y-3.7717
X8.4953Y-3.374
T6
X3.155Y-3.22
X3.155Y-3.82
X3.71Y-2.33
X3.71Y-2.93
X6.57Y-2.25
X7.17Y-2.25
X7.315Y-2.415
X7.315Y-3.015
X7.8701Y-3.0709
X7.8701Y-3.2677
T7
X2.97Y-2.17
X2.97Y-3.0558
X6.25Y-2.56
X6.2513Y-2.97
X7.1358Y-2.56
X7.1371Y-2.97
T8
X2.92Y-1.82
X3.12Y-1.82
X3.48Y-1.8225
X3.68Y-1.8225
X3.88Y-1.8225
X4.08Y-1.8225
X4.415Y-1.825
X4.615Y-1.825
X4.815Y-1.825
X5.015Y-1.825
X5.215Y-1.825
X5.415Y-1.825
X5.615Y-1.825
X5.9525Y-1.8225
X6.1525Y-1.8225
X6.3525Y-1.8225
X6.5525Y-1.8225
X6.7525Y-1.8225
X6.9525Y-1.8225
X7.1525Y-1.8225
X7.3525Y-1.8225
X7.5525Y-1.8225
X7.895Y-1.82
X8.095Y-1.82
X8.295Y-1.82
X8.6325Y-1.8225
X8.8325Y-1.8225
X9.0325Y-1.8225
T9
X4.3557Y-3.3791
X4.3557Y-3.6744
X4.3557Y-3.9641
X4.3557Y-4.2594
X4.3557Y-4.5491
X4.3557Y-4.8444
X4.5526Y-3.3791
X4.5526Y-3.6744
X4.5526Y-3.9641
X4.5526Y-4.2594
X4.5526Y-4.5491
X4.5526Y-4.8444
X4.7494Y-3.3791
X4.7494Y-3.6744
X4.7494Y-3.9641
X4.7494Y-4.2594
X4.7494Y-4.5491
X4.7494Y-4.8444
X5.34Y-3.3791
X5.34Y-3.6744
X5.34Y-3.9641
X5.34Y-4.2594
X5.34Y-4.5491
X5.34Y-4.8444
T10
X9.3125Y-1.7725
X9.5125Y-1.7725
T11
X3.91Y-3.24
X3.91Y-3.4546
X3.91Y-3.6691
T0
M30
