%TF.GenerationSoftware,KiCad,Pcbnew,(5.1.10)-1*%
%TF.CreationDate,2021-09-25T11:42:51+02:00*%
%TF.ProjectId,portail_jc,706f7274-6169-46c5-9f6a-632e6b696361,rev?*%
%TF.SameCoordinates,Original*%
%TF.FileFunction,Soldermask,Bot*%
%TF.FilePolarity,Negative*%
%FSLAX46Y46*%
G04 Gerber Fmt 4.6, Leading zero omitted, Abs format (unit mm)*
G04 Created by KiCad (PCBNEW (5.1.10)-1) date 2021-09-25 11:42:51*
%MOMM*%
%LPD*%
G01*
G04 APERTURE LIST*
%ADD10C,1.600000*%
%ADD11O,2.200000X2.200000*%
%ADD12R,2.200000X2.200000*%
%ADD13O,1.600000X1.600000*%
%ADD14C,3.500000*%
%ADD15C,2.200000*%
%ADD16O,1.700000X1.700000*%
%ADD17R,1.700000X1.700000*%
%ADD18C,3.600000*%
%ADD19O,2.400000X2.400000*%
%ADD20C,2.400000*%
%ADD21C,3.300000*%
%ADD22C,3.000000*%
%ADD23R,3.000000X3.000000*%
%ADD24O,2.400000X1.600000*%
%ADD25R,2.400000X1.600000*%
%ADD26C,2.700000*%
%ADD27O,1.905000X2.000000*%
%ADD28R,1.905000X2.000000*%
%ADD29C,6.000000*%
%ADD30O,1.800000X1.800000*%
%ADD31R,1.800000X1.800000*%
%ADD32R,1.600000X1.600000*%
%ADD33R,2.400000X2.400000*%
%ADD34O,2.000000X2.000000*%
%ADD35R,2.000000X2.000000*%
%ADD36C,1.800000*%
%ADD37C,3.200000*%
%ADD38C,1.500000*%
%ADD39R,1.500000X1.500000*%
%ADD40R,4.500000X2.500000*%
%ADD41O,4.500000X2.500000*%
G04 APERTURE END LIST*
D10*
%TO.C,C20*%
X234235000Y-65278000D03*
X229235000Y-65278000D03*
%TD*%
%TO.C,C19*%
X224028000Y-74977000D03*
X224028000Y-69977000D03*
%TD*%
%TO.C,C1*%
X224663000Y-82978000D03*
X224663000Y-77978000D03*
%TD*%
D11*
%TO.C,D3*%
X182880000Y-88500000D03*
D12*
X193040000Y-88500000D03*
%TD*%
D13*
%TO.C,R40*%
X198755000Y-68326000D03*
D10*
X191135000Y-68326000D03*
%TD*%
D14*
%TO.C,FL1*%
X87438000Y-114632000D03*
X87438000Y-101632000D03*
X77438000Y-114632000D03*
X77438000Y-101632000D03*
%TD*%
D10*
%TO.C,R22*%
X103124000Y-107315000D03*
D13*
X103124000Y-99695000D03*
%TD*%
%TO.C,R20*%
X99441000Y-99695000D03*
D10*
X99441000Y-107315000D03*
%TD*%
D15*
%TO.C,C18*%
X73787000Y-133745000D03*
X73787000Y-118745000D03*
%TD*%
%TO.C,C5*%
X73660000Y-82042000D03*
X73660000Y-97042000D03*
%TD*%
D16*
%TO.C,J8*%
X233045000Y-58420000D03*
X235585000Y-58420000D03*
X238125000Y-58420000D03*
D17*
X240665000Y-58420000D03*
%TD*%
D16*
%TO.C,J7*%
X227580000Y-71179500D03*
X230120000Y-71179500D03*
X232660000Y-71179500D03*
D17*
X235200000Y-71179500D03*
%TD*%
D16*
%TO.C,J11*%
X200025000Y-58420000D03*
X202565000Y-58420000D03*
X205105000Y-58420000D03*
D17*
X207645000Y-58420000D03*
%TD*%
D18*
%TO.C,J2*%
X103632000Y-46291500D03*
X98552000Y-46291500D03*
X93472000Y-46291500D03*
X88392000Y-46291500D03*
%TD*%
%TO.C,J4*%
X191833500Y-46291500D03*
X186753500Y-46291500D03*
X181673500Y-46291500D03*
X176593500Y-46291500D03*
X171513500Y-46291500D03*
X166433500Y-46291500D03*
X161353500Y-46291500D03*
X156273500Y-46291500D03*
X151193500Y-46291500D03*
%TD*%
%TO.C,J3*%
X142621000Y-46355000D03*
X137541000Y-46355000D03*
X132461000Y-46355000D03*
X127381000Y-46355000D03*
X122301000Y-46355000D03*
X117221000Y-46355000D03*
X112141000Y-46355000D03*
%TD*%
D13*
%TO.C,R5*%
X203200000Y-125730000D03*
D10*
X195580000Y-125730000D03*
%TD*%
D13*
%TO.C,R39*%
X156464000Y-115824000D03*
D10*
X156464000Y-123444000D03*
%TD*%
D19*
%TO.C,D10*%
X166878000Y-57150000D03*
D20*
X182118000Y-57150000D03*
%TD*%
D19*
%TO.C,D4*%
X185801000Y-61341000D03*
D20*
X185801000Y-76581000D03*
%TD*%
D19*
%TO.C,D1*%
X79756000Y-81788000D03*
D20*
X79756000Y-97028000D03*
%TD*%
D13*
%TO.C,R38*%
X218821000Y-132080000D03*
D10*
X226441000Y-132080000D03*
%TD*%
D13*
%TO.C,R37*%
X229489000Y-61595000D03*
D10*
X229489000Y-53975000D03*
%TD*%
D21*
%TO.C,K4*%
X128181100Y-119301500D03*
D22*
X110636000Y-123048000D03*
X115636000Y-115548000D03*
X120636000Y-123048000D03*
X120636000Y-115548000D03*
X110636000Y-115548000D03*
X115636000Y-123048000D03*
X135636000Y-115548000D03*
D23*
X135636000Y-123048000D03*
%TD*%
D21*
%TO.C,K3*%
X128181100Y-104442500D03*
D22*
X110636000Y-108189000D03*
X115636000Y-100689000D03*
X120636000Y-108189000D03*
X120636000Y-100689000D03*
X110636000Y-100689000D03*
X115636000Y-108189000D03*
X135636000Y-100689000D03*
D23*
X135636000Y-108189000D03*
%TD*%
D21*
%TO.C,K2*%
X128181100Y-89583500D03*
D22*
X110636000Y-93330000D03*
X115636000Y-85830000D03*
X120636000Y-93330000D03*
X120636000Y-85830000D03*
X110636000Y-85830000D03*
X115636000Y-93330000D03*
X135636000Y-85830000D03*
D23*
X135636000Y-93330000D03*
%TD*%
D10*
%TO.C,C14*%
X144272000Y-119318000D03*
X144272000Y-124318000D03*
%TD*%
%TO.C,C13*%
X144272000Y-104586000D03*
X144272000Y-109586000D03*
%TD*%
%TO.C,C12*%
X144272000Y-89600000D03*
X144272000Y-94600000D03*
%TD*%
D13*
%TO.C,R23*%
X203200000Y-131826000D03*
D10*
X195580000Y-131826000D03*
%TD*%
D13*
%TO.C,R36*%
X233934000Y-85344000D03*
D10*
X233934000Y-77724000D03*
%TD*%
D13*
%TO.C,R27*%
X227838000Y-85344000D03*
D10*
X227838000Y-77724000D03*
%TD*%
%TO.C,C15*%
X209376000Y-76200000D03*
X214376000Y-76200000D03*
%TD*%
D13*
%TO.C,R6*%
X153162000Y-82550000D03*
D10*
X153162000Y-90170000D03*
%TD*%
D24*
%TO.C,U2*%
X239370000Y-112750000D03*
X231750000Y-130530000D03*
X239370000Y-115290000D03*
X231750000Y-127990000D03*
X239370000Y-117830000D03*
X231750000Y-125450000D03*
X239370000Y-120370000D03*
X231750000Y-122910000D03*
X239370000Y-122910000D03*
X231750000Y-120370000D03*
X239370000Y-125450000D03*
X231750000Y-117830000D03*
X239370000Y-127990000D03*
X231750000Y-115290000D03*
X239370000Y-130530000D03*
D25*
X231750000Y-112750000D03*
%TD*%
D10*
%TO.C,C16*%
X196342000Y-88646000D03*
X201342000Y-88646000D03*
%TD*%
D26*
%TO.C,H10*%
X242058000Y-95130000D03*
%TD*%
%TO.C,H9*%
X222000000Y-95130000D03*
%TD*%
D27*
%TO.C,U4*%
X214376000Y-85700000D03*
X211836000Y-85700000D03*
D28*
X209296000Y-85700000D03*
%TD*%
D10*
%TO.C,C10*%
X162132000Y-103378000D03*
X167132000Y-103378000D03*
%TD*%
%TO.C,C9*%
X214042000Y-89154000D03*
X209042000Y-89154000D03*
%TD*%
D22*
%TO.C,H3*%
X211759500Y-61800000D03*
%TD*%
D29*
%TO.C,H5*%
X211800000Y-64516000D03*
%TD*%
D22*
%TO.C,H1*%
X101743500Y-61800000D03*
%TD*%
D29*
%TO.C,H6*%
X101700000Y-64400000D03*
%TD*%
D22*
%TO.C,H2*%
X101743500Y-112800000D03*
%TD*%
D29*
%TO.C,H8*%
X101663500Y-115400000D03*
%TD*%
D22*
%TO.C,H4*%
X211783500Y-112800000D03*
%TD*%
D29*
%TO.C,H7*%
X211876000Y-115400000D03*
%TD*%
D11*
%TO.C,D5*%
X187706000Y-97790000D03*
D12*
X177546000Y-97790000D03*
%TD*%
D13*
%TO.C,R35*%
X223520000Y-61595000D03*
D10*
X223520000Y-53975000D03*
%TD*%
D13*
%TO.C,R34*%
X220472000Y-53975000D03*
D10*
X220472000Y-61595000D03*
%TD*%
D13*
%TO.C,R33*%
X217424000Y-61595000D03*
D10*
X217424000Y-53975000D03*
%TD*%
%TO.C,C8*%
X206750000Y-132750000D03*
X206750000Y-127750000D03*
%TD*%
%TO.C,C7*%
X242236000Y-65024000D03*
X237236000Y-65024000D03*
%TD*%
D30*
%TO.C,D14*%
X170180000Y-99822000D03*
D31*
X162560000Y-99822000D03*
%TD*%
D13*
%TO.C,R32*%
X160274000Y-98806000D03*
D10*
X152654000Y-98806000D03*
%TD*%
D13*
%TO.C,R31*%
X177546000Y-103378000D03*
D10*
X169926000Y-103378000D03*
%TD*%
%TO.C,R3*%
X207772000Y-103124000D03*
D13*
X215392000Y-103124000D03*
%TD*%
D11*
%TO.C,D13*%
X190500000Y-101346000D03*
D12*
X180340000Y-101346000D03*
%TD*%
D32*
%TO.C,A1*%
X162623500Y-122491500D03*
D13*
X195643500Y-107251500D03*
X165163500Y-122491500D03*
X193103500Y-107251500D03*
X167703500Y-122491500D03*
X190563500Y-107251500D03*
X170243500Y-122491500D03*
X188023500Y-107251500D03*
X172783500Y-122491500D03*
X185483500Y-107251500D03*
X175323500Y-122491500D03*
X182943500Y-107251500D03*
X177863500Y-122491500D03*
X180403500Y-107251500D03*
X180403500Y-122491500D03*
X177863500Y-107251500D03*
X182943500Y-122491500D03*
X175323500Y-107251500D03*
X185483500Y-122491500D03*
X172783500Y-107251500D03*
X188023500Y-122491500D03*
X170243500Y-107251500D03*
X190563500Y-122491500D03*
X167703500Y-107251500D03*
X193103500Y-122491500D03*
X165163500Y-107251500D03*
X195643500Y-122491500D03*
X162623500Y-107251500D03*
X198183500Y-122491500D03*
X198183500Y-107251500D03*
%TD*%
%TO.C,R30*%
X170180000Y-96266000D03*
D10*
X162560000Y-96266000D03*
%TD*%
D19*
%TO.C,R29*%
X94996000Y-74422000D03*
D20*
X94996000Y-59182000D03*
%TD*%
D10*
%TO.C,C6*%
X106807000Y-99688000D03*
X106807000Y-107188000D03*
%TD*%
%TO.C,C3*%
X100584000Y-77350000D03*
X100584000Y-69850000D03*
%TD*%
D33*
%TO.C,C2*%
X195326000Y-82042000D03*
D20*
X195326000Y-77042000D03*
%TD*%
D10*
%TO.C,C4*%
X209122000Y-99568000D03*
X214122000Y-99568000D03*
%TD*%
D34*
%TO.C,D2*%
X190754000Y-56388000D03*
X195834000Y-61468000D03*
X195834000Y-56388000D03*
D35*
X190754000Y-61468000D03*
%TD*%
D12*
%TO.C,D7*%
X140970000Y-94600000D03*
D11*
X140970000Y-84440000D03*
%TD*%
%TO.C,D8*%
X140970000Y-99426000D03*
D12*
X140970000Y-109586000D03*
%TD*%
D31*
%TO.C,D9*%
X190500000Y-95758000D03*
D36*
X193040000Y-95758000D03*
%TD*%
D12*
%TO.C,D11*%
X140970000Y-124318000D03*
D11*
X140970000Y-114158000D03*
%TD*%
D12*
%TO.C,D12*%
X184150000Y-83312000D03*
D11*
X173990000Y-83312000D03*
%TD*%
D37*
%TO.C,F1*%
X75438000Y-66368000D03*
D22*
X75438000Y-77618000D03*
X75438000Y-55118000D03*
%TD*%
%TO.C,F2*%
X158750000Y-65024000D03*
X181250000Y-65024000D03*
D37*
X170000000Y-65024000D03*
%TD*%
D22*
%TO.C,F4*%
X181283500Y-75438000D03*
X158783500Y-75438000D03*
D37*
X170033500Y-75438000D03*
%TD*%
D18*
%TO.C,J1*%
X74168000Y-46228000D03*
X79248000Y-46228000D03*
%TD*%
%TO.C,J5*%
X229425500Y-46291500D03*
X224345500Y-46291500D03*
X219265500Y-46291500D03*
%TD*%
%TO.C,J6*%
X236537500Y-45021500D03*
X241617500Y-45021500D03*
%TD*%
D17*
%TO.C,J9*%
X241554000Y-51181000D03*
%TD*%
D18*
%TO.C,J10*%
X200533000Y-46228000D03*
X205613000Y-46228000D03*
X210693000Y-46228000D03*
%TD*%
D38*
%TO.C,Q2*%
X147828000Y-92314000D03*
X147828000Y-94854000D03*
D39*
X147828000Y-89774000D03*
%TD*%
D38*
%TO.C,Q3*%
X147828000Y-107300000D03*
X147828000Y-109840000D03*
D39*
X147828000Y-104760000D03*
%TD*%
%TO.C,Q4*%
X147828000Y-119492000D03*
D38*
X147828000Y-124572000D03*
X147828000Y-122032000D03*
%TD*%
D40*
%TO.C,Q5*%
X99314000Y-82296000D03*
D41*
X99314000Y-87746000D03*
X99314000Y-93196000D03*
%TD*%
D10*
%TO.C,R1*%
X232410000Y-108458000D03*
D13*
X224790000Y-108458000D03*
%TD*%
D10*
%TO.C,R2*%
X200533000Y-54483000D03*
D13*
X208153000Y-54483000D03*
%TD*%
%TO.C,R4*%
X226410000Y-112514000D03*
D10*
X218790000Y-112514000D03*
%TD*%
D13*
%TO.C,R7*%
X153035000Y-101854000D03*
D10*
X153035000Y-109474000D03*
%TD*%
D13*
%TO.C,R8*%
X230886000Y-77724000D03*
D10*
X230886000Y-85344000D03*
%TD*%
%TO.C,R9*%
X236982000Y-85344000D03*
D13*
X236982000Y-77724000D03*
%TD*%
D10*
%TO.C,R10*%
X218790000Y-129024000D03*
D13*
X226410000Y-129024000D03*
%TD*%
%TO.C,R11*%
X226410000Y-125722000D03*
D10*
X218790000Y-125722000D03*
%TD*%
%TO.C,R12*%
X218790000Y-122420000D03*
D13*
X226410000Y-122420000D03*
%TD*%
%TO.C,R13*%
X226410000Y-119118000D03*
D10*
X218790000Y-119118000D03*
%TD*%
D13*
%TO.C,R14*%
X218948000Y-65278000D03*
D10*
X226568000Y-65278000D03*
%TD*%
%TO.C,R15*%
X232473500Y-102108000D03*
D13*
X224853500Y-102108000D03*
%TD*%
D10*
%TO.C,R16*%
X195580000Y-128778000D03*
D13*
X203200000Y-128778000D03*
%TD*%
D10*
%TO.C,R17*%
X196088000Y-95758000D03*
D13*
X203708000Y-95758000D03*
%TD*%
%TO.C,R18*%
X154432000Y-112522000D03*
D10*
X162052000Y-112522000D03*
%TD*%
D13*
%TO.C,R19*%
X95758000Y-107315000D03*
D10*
X95758000Y-99695000D03*
%TD*%
%TO.C,R21*%
X185420000Y-115824000D03*
D13*
X193040000Y-115824000D03*
%TD*%
%TO.C,R24*%
X226410000Y-115816000D03*
D10*
X218790000Y-115816000D03*
%TD*%
%TO.C,R25*%
X206800000Y-124000000D03*
D13*
X214420000Y-124000000D03*
%TD*%
%TO.C,R26*%
X232410000Y-105410000D03*
D10*
X224790000Y-105410000D03*
%TD*%
D13*
%TO.C,R28*%
X224901500Y-98806000D03*
D10*
X232521500Y-98806000D03*
%TD*%
D28*
%TO.C,U1*%
X209000000Y-95800000D03*
D27*
X211540000Y-95800000D03*
X214080000Y-95800000D03*
%TD*%
D25*
%TO.C,U3*%
X82804000Y-122682000D03*
D24*
X90424000Y-127762000D03*
X82804000Y-125222000D03*
X90424000Y-125222000D03*
X82804000Y-127762000D03*
X90424000Y-122682000D03*
%TD*%
M02*
